<mxfile host="Electron" agent="Mozilla/5.0 (Windows NT 10.0; Win64; x64) AppleWebKit/537.36 (KHTML, like Gecko) draw.io/26.0.16 Chrome/132.0.6834.196 Electron/34.2.0 Safari/537.36" version="26.0.16">
  <diagram id="SgBfYZUMyMGsrr3-kZMk" name="Seite-1">
    <mxGraphModel dx="3086" dy="1243" grid="0" gridSize="10" guides="1" tooltips="1" connect="1" arrows="1" fold="1" page="0" pageScale="1" pageWidth="827" pageHeight="1169" background="none" math="0" shadow="0">
      <root>
        <mxCell id="0" />
        <mxCell id="1" parent="0" />
        <mxCell id="node14" value="&lt;p style=&quot;margin:0px;margin-top:4px;text-align:center;&quot;&gt;&lt;b&gt;abteilung&lt;/b&gt;&lt;/p&gt;&lt;hr size=&quot;1&quot;/&gt;&lt;p style=&quot;margin:0 0 0 4px;line-height:1.6;&quot;&gt; name: varchar(255)&lt;br/&gt; nickname: varchar(255)&lt;/p&gt;&lt;hr size=&quot;1&quot;/&gt;&lt;p style=&quot;margin:0 0 0 4px;line-height:1.6;&quot;&gt; id: bigint&lt;/p&gt;" style="verticalAlign=top;align=left;overflow=fill;fontSize=14;fontFamily=Helvetica;html=1;rounded=0;shadow=0;comic=0;labelBackgroundColor=none;strokeWidth=1;fillColor=#B2C9AB;strokeColor=#788AA3;fontColor=#46495D;" parent="1" vertex="1">
          <mxGeometry x="-3" y="279" width="177" height="132" as="geometry" />
        </mxCell>
        <mxCell id="node3" value="&lt;p style=&quot;margin:0px;margin-top:4px;text-align:center;&quot;&gt;&lt;b&gt;building&lt;/b&gt;&lt;/p&gt;&lt;hr size=&quot;1&quot;/&gt;&lt;p style=&quot;margin:0 0 0 4px;line-height:1.6;&quot;&gt; kuerzel: varchar(255)&lt;br/&gt; name: varchar(255)&lt;/p&gt;&lt;hr size=&quot;1&quot;/&gt;&lt;p style=&quot;margin:0 0 0 4px;line-height:1.6;&quot;&gt; id: bigint&lt;/p&gt;" style="verticalAlign=top;align=left;overflow=fill;fontSize=14;fontFamily=Helvetica;html=1;rounded=0;shadow=0;comic=0;labelBackgroundColor=none;strokeWidth=1;fillColor=#B2C9AB;strokeColor=#788AA3;fontColor=#46495D;" parent="1" vertex="1">
          <mxGeometry x="1137" y="1062" width="162" height="132" as="geometry" />
        </mxCell>
        <mxCell id="node8" value="&lt;p style=&quot;margin:0px;margin-top:4px;text-align:center;&quot;&gt;&lt;b&gt;classpart&lt;/b&gt;&lt;/p&gt;&lt;hr size=&quot;1&quot;/&gt;&lt;p style=&quot;margin:0 0 0 4px;line-height:1.6;&quot;&gt; schulklasse_id: bigint&lt;br/&gt; kennung: varchar(255)&lt;/p&gt;&lt;hr size=&quot;1&quot;/&gt;&lt;p style=&quot;margin:0 0 0 4px;line-height:1.6;&quot;&gt; id: bigint&lt;/p&gt;" style="verticalAlign=top;align=left;overflow=fill;fontSize=14;fontFamily=Helvetica;html=1;rounded=0;shadow=0;comic=0;labelBackgroundColor=none;strokeWidth=1;fillColor=#B2C9AB;strokeColor=#788AA3;fontColor=#46495D;" parent="1" vertex="1">
          <mxGeometry x="101" y="859" width="170" height="132" as="geometry" />
        </mxCell>
        <mxCell id="node1" value="&lt;p style=&quot;margin:0px;margin-top:4px;text-align:center;&quot;&gt;&lt;b&gt;jahrgang&lt;/b&gt;&lt;/p&gt;&lt;hr size=&quot;1&quot;/&gt;&lt;p style=&quot;margin:0 0 0 4px;line-height:1.6;&quot;&gt; stufe: integer&lt;br/&gt; abteilung_id: bigint&lt;/p&gt;&lt;hr size=&quot;1&quot;/&gt;&lt;p style=&quot;margin:0 0 0 4px;line-height:1.6;&quot;&gt; id: bigint&lt;/p&gt;" style="verticalAlign=top;align=left;overflow=fill;fontSize=14;fontFamily=Helvetica;html=1;rounded=0;shadow=0;comic=0;labelBackgroundColor=none;strokeWidth=1;fillColor=#B2C9AB;strokeColor=#788AA3;fontColor=#46495D;" parent="1" vertex="1">
          <mxGeometry x="350" y="263" width="153" height="132" as="geometry" />
        </mxCell>
        <mxCell id="node15" value="&lt;p style=&quot;margin:0px;margin-top:4px;text-align:center;&quot;&gt;&lt;b&gt;jahrgang_tag&lt;/b&gt;&lt;/p&gt;&lt;hr size=&quot;1&quot;/&gt;&lt;p style=&quot;margin:0 0 0 4px;line-height:1.6;&quot;&gt; jahrgang_id: bigint&lt;br/&gt; tags_id: bigint&lt;/p&gt;" style="verticalAlign=top;align=left;overflow=fill;fontSize=14;fontFamily=Helvetica;html=1;rounded=0;shadow=0;comic=0;labelBackgroundColor=none;strokeWidth=1;fillColor=#e1d5e7;strokeColor=#9673a6;" parent="1" vertex="1">
          <mxGeometry x="617" y="252" width="150" height="103" as="geometry" />
        </mxCell>
        <mxCell id="node16" value="&lt;p style=&quot;margin:0px;margin-top:4px;text-align:center;&quot;&gt;&lt;b&gt;lesson&lt;/b&gt;&lt;/p&gt;&lt;hr size=&quot;1&quot;/&gt;&lt;p style=&quot;margin:0 0 0 4px;line-height:1.6;&quot;&gt; begin_id: bigint&lt;br/&gt; date: timestamp(6)&lt;br/&gt; end_id: bigint&lt;br/&gt; room_id: bigint&lt;br/&gt; subject_id: bigint&lt;/p&gt;&lt;hr size=&quot;1&quot;/&gt;&lt;p style=&quot;margin:0 0 0 4px;line-height:1.6;&quot;&gt; id: bigint&lt;/p&gt;" style="verticalAlign=top;align=left;overflow=fill;fontSize=14;fontFamily=Helvetica;html=1;rounded=0;shadow=0;comic=0;labelBackgroundColor=none;strokeWidth=1;fillColor=#B2C9AB;strokeColor=#788AA3;fontColor=#46495D;" parent="1" vertex="1">
          <mxGeometry x="554" y="1120" width="147" height="200" as="geometry" />
        </mxCell>
        <mxCell id="node7" value="&lt;p style=&quot;margin:0px;margin-top:4px;text-align:center;&quot;&gt;&lt;b&gt;lesson_classpart&lt;/b&gt;&lt;/p&gt;&lt;hr size=&quot;1&quot;/&gt;&lt;p style=&quot;margin:0 0 0 4px;line-height:1.6;&quot;&gt; lesson_id: bigint&lt;br/&gt; groups_id: bigint&lt;/p&gt;" style="verticalAlign=top;align=left;overflow=fill;fontSize=14;fontFamily=Helvetica;html=1;rounded=0;shadow=0;comic=0;labelBackgroundColor=none;strokeWidth=1;fillColor=#e1d5e7;strokeColor=#9673a6;" parent="1" vertex="1">
          <mxGeometry x="239" y="1148" width="171" height="103" as="geometry" />
        </mxCell>
        <mxCell id="node17" value="&lt;p style=&quot;margin:0px;margin-top:4px;text-align:center;&quot;&gt;&lt;b&gt;lessonbegin&lt;/b&gt;&lt;/p&gt;&lt;hr size=&quot;1&quot;/&gt;&lt;p style=&quot;margin:0 0 0 4px;line-height:1.6;&quot;&gt; lessonnumber: integer&lt;br/&gt; time: time(6)&lt;/p&gt;&lt;hr size=&quot;1&quot;/&gt;&lt;p style=&quot;margin:0 0 0 4px;line-height:1.6;&quot;&gt; id: bigint&lt;/p&gt;" style="verticalAlign=top;align=left;overflow=fill;fontSize=14;fontFamily=Helvetica;html=1;rounded=0;shadow=0;comic=0;labelBackgroundColor=none;strokeWidth=1;fillColor=#B2C9AB;strokeColor=#788AA3;fontColor=#46495D;" parent="1" vertex="1">
          <mxGeometry x="887" y="1198" width="172" height="132" as="geometry" />
        </mxCell>
        <mxCell id="node5" value="&lt;p style=&quot;margin:0px;margin-top:4px;text-align:center;&quot;&gt;&lt;b&gt;lessonend&lt;/b&gt;&lt;/p&gt;&lt;hr size=&quot;1&quot;/&gt;&lt;p style=&quot;margin:0 0 0 4px;line-height:1.6;&quot;&gt; lessonnumber: integer&lt;br/&gt; time: time(6)&lt;/p&gt;&lt;hr size=&quot;1&quot;/&gt;&lt;p style=&quot;margin:0 0 0 4px;line-height:1.6;&quot;&gt; id: bigint&lt;/p&gt;" style="verticalAlign=top;align=left;overflow=fill;fontSize=14;fontFamily=Helvetica;html=1;rounded=0;shadow=0;comic=0;labelBackgroundColor=none;strokeWidth=1;fillColor=#B2C9AB;strokeColor=#788AA3;fontColor=#46495D;" parent="1" vertex="1">
          <mxGeometry x="304" y="1343" width="172" height="132" as="geometry" />
        </mxCell>
        <mxCell id="node0" value="&lt;p style=&quot;margin:0px;margin-top:4px;text-align:center;&quot;&gt;&lt;b&gt;room&lt;/b&gt;&lt;/p&gt;&lt;hr size=&quot;1&quot;/&gt;&lt;p style=&quot;margin:0 0 0 4px;line-height:1.6;&quot;&gt; capacity: integer&lt;br/&gt; number: integer&lt;br/&gt; building_id: bigint&lt;br/&gt; floor: varchar(255)&lt;/p&gt;&lt;hr size=&quot;1&quot;/&gt;&lt;p style=&quot;margin:0 0 0 4px;line-height:1.6;&quot;&gt; id: bigint&lt;/p&gt;" style="verticalAlign=top;align=left;overflow=fill;fontSize=14;fontFamily=Helvetica;html=1;rounded=0;shadow=0;comic=0;labelBackgroundColor=none;strokeWidth=1;fillColor=#B2C9AB;strokeColor=#788AA3;fontColor=#46495D;" parent="1" vertex="1">
          <mxGeometry x="858" y="949" width="146" height="174" as="geometry" />
        </mxCell>
        <mxCell id="node10" value="&lt;p style=&quot;margin:0px;margin-top:4px;text-align:center;&quot;&gt;&lt;b&gt;room_tag&lt;/b&gt;&lt;/p&gt;&lt;hr size=&quot;1&quot;/&gt;&lt;p style=&quot;margin:0 0 0 4px;line-height:1.6;&quot;&gt; room_id: bigint&lt;br/&gt; tags_id: bigint&lt;/p&gt;" style="verticalAlign=top;align=left;overflow=fill;fontSize=14;fontFamily=Helvetica;html=1;rounded=0;shadow=0;comic=0;labelBackgroundColor=none;strokeWidth=1;fillColor=#e1d5e7;strokeColor=#9673a6;" parent="1" vertex="1">
          <mxGeometry x="900" y="715" width="127" height="103" as="geometry" />
        </mxCell>
        <mxCell id="node13" value="&lt;p style=&quot;margin:0px;margin-top:4px;text-align:center;&quot;&gt;&lt;b&gt;schulklasse&lt;/b&gt;&lt;/p&gt;&lt;hr size=&quot;1&quot;/&gt;&lt;p style=&quot;margin:0 0 0 4px;line-height:1.6;&quot;&gt; abteilung_id: bigint&lt;br/&gt; jahrgang_id: bigint&lt;br/&gt; kennung: varchar(255)&lt;br/&gt; nickname: varchar(255)&lt;/p&gt;&lt;hr size=&quot;1&quot;/&gt;&lt;p style=&quot;margin:0 0 0 4px;line-height:1.6;&quot;&gt; id: bigint&lt;/p&gt;" style="verticalAlign=top;align=left;overflow=fill;fontSize=14;fontFamily=Helvetica;html=1;rounded=0;shadow=0;comic=0;labelBackgroundColor=none;strokeWidth=1;fillColor=#B2C9AB;strokeColor=#788AA3;fontColor=#46495D;" parent="1" vertex="1">
          <mxGeometry x="124" y="525" width="177" height="174" as="geometry" />
        </mxCell>
        <mxCell id="node9" value="&lt;p style=&quot;margin:0px;margin-top:4px;text-align:center;&quot;&gt;&lt;b&gt;student&lt;/b&gt;&lt;/p&gt;&lt;hr size=&quot;1&quot;/&gt;&lt;p style=&quot;margin:0 0 0 4px;line-height:1.6;&quot;&gt; group_id: bigint&lt;br/&gt; schulklasse_id: bigint&lt;br/&gt; firstname: varchar(255)&lt;br/&gt; lastname: varchar(255)&lt;/p&gt;&lt;hr size=&quot;1&quot;/&gt;&lt;p style=&quot;margin:0 0 0 4px;line-height:1.6;&quot;&gt; id: bigint&lt;/p&gt;" style="verticalAlign=top;align=left;overflow=fill;fontSize=14;fontFamily=Helvetica;html=1;rounded=0;shadow=0;comic=0;labelBackgroundColor=none;strokeWidth=1;fillColor=#B2C9AB;strokeColor=#788AA3;fontColor=#46495D;" parent="1" vertex="1">
          <mxGeometry x="-196" y="656" width="176" height="174" as="geometry" />
        </mxCell>
        <mxCell id="node12" value="&lt;p style=&quot;margin:0px;margin-top:4px;text-align:center;&quot;&gt;&lt;b&gt;subject&lt;/b&gt;&lt;/p&gt;&lt;hr size=&quot;1&quot;/&gt;&lt;p style=&quot;margin:0 0 0 4px;line-height:1.6;&quot;&gt; hoursperweek: integer&lt;br/&gt; maxhoursperday: integer&lt;br/&gt; minhoursperday: integer&lt;br/&gt; name: varchar(255)&lt;/p&gt;&lt;hr size=&quot;1&quot;/&gt;&lt;p style=&quot;margin:0 0 0 4px;line-height:1.6;&quot;&gt; id: bigint&lt;/p&gt;" style="verticalAlign=top;align=left;overflow=fill;fontSize=14;fontFamily=Helvetica;html=1;rounded=0;shadow=0;comic=0;labelBackgroundColor=none;strokeWidth=1;fillColor=#B2C9AB;strokeColor=#788AA3;fontColor=#46495D;" parent="1" vertex="1">
          <mxGeometry x="450" y="811" width="193" height="174" as="geometry" />
        </mxCell>
        <mxCell id="node2" value="&lt;p style=&quot;margin:0px;margin-top:4px;text-align:center;&quot;&gt;&lt;b&gt;subject_tag&lt;/b&gt;&lt;/p&gt;&lt;hr size=&quot;1&quot;/&gt;&lt;p style=&quot;margin:0 0 0 4px;line-height:1.6;&quot;&gt; subject_id: bigint&lt;br/&gt; tagsrequired_id: bigint&lt;br/&gt; tagsuseful_id: bigint&lt;/p&gt;" style="verticalAlign=top;align=left;overflow=fill;fontSize=14;fontFamily=Helvetica;html=1;rounded=0;shadow=0;comic=0;labelBackgroundColor=none;strokeWidth=1;fillColor=#d5e8d4;strokeColor=#82b366;" parent="1" vertex="1">
          <mxGeometry x="572" y="535" width="176" height="131" as="geometry" />
        </mxCell>
        <mxCell id="node11" value="&lt;p style=&quot;margin:0px;margin-top:4px;text-align:center;&quot;&gt;&lt;b&gt;tag&lt;/b&gt;&lt;/p&gt;&lt;hr size=&quot;1&quot;/&gt;&lt;p style=&quot;margin:0 0 0 4px;line-height:1.6;&quot;&gt; name: varchar(255)&lt;/p&gt;&lt;hr size=&quot;1&quot;/&gt;&lt;p style=&quot;margin:0 0 0 4px;line-height:1.6;&quot;&gt; id: bigint&lt;/p&gt;" style="verticalAlign=top;align=left;overflow=fill;fontSize=14;fontFamily=Helvetica;html=1;rounded=0;shadow=0;comic=0;labelBackgroundColor=none;strokeWidth=1;fillColor=#B2C9AB;strokeColor=#788AA3;fontColor=#46495D;" parent="1" vertex="1">
          <mxGeometry x="861" y="467" width="150" height="104" as="geometry" />
        </mxCell>
        <mxCell id="node4" value="&lt;p style=&quot;margin:0px;margin-top:4px;text-align:center;&quot;&gt;&lt;b&gt;teacher&lt;/b&gt;&lt;/p&gt;&lt;hr size=&quot;1&quot;/&gt;&lt;p style=&quot;margin:0 0 0 4px;line-height:1.6;&quot;&gt; firstname: varchar(255)&lt;br/&gt; lastname: varchar(255)&lt;br/&gt; nickname: varchar(255)&lt;/p&gt;&lt;hr size=&quot;1&quot;/&gt;&lt;p style=&quot;margin:0 0 0 4px;line-height:1.6;&quot;&gt; id: bigint&lt;/p&gt;" style="verticalAlign=top;align=left;overflow=fill;fontSize=14;fontFamily=Helvetica;html=1;rounded=0;shadow=0;comic=0;labelBackgroundColor=none;strokeWidth=1;fillColor=#B2C9AB;strokeColor=#788AA3;fontColor=#46495D;" parent="1" vertex="1">
          <mxGeometry x="1239" y="441" width="177" height="148" as="geometry" />
        </mxCell>
        <mxCell id="node6" value="&lt;p style=&quot;margin:0px;margin-top:4px;text-align:center;&quot;&gt;&lt;b&gt;teacher_tag&lt;/b&gt;&lt;/p&gt;&lt;hr size=&quot;1&quot;/&gt;&lt;p style=&quot;margin:0 0 0 4px;line-height:1.6;&quot;&gt; teacher_id: bigint&lt;br/&gt; tags_id: bigint&lt;/p&gt;" style="verticalAlign=top;align=left;overflow=fill;fontSize=14;fontFamily=Helvetica;html=1;rounded=0;shadow=0;comic=0;labelBackgroundColor=none;strokeWidth=1;fillColor=#e1d5e7;strokeColor=#9673a6;" parent="1" vertex="1">
          <mxGeometry x="1043" y="228" width="140" height="103" as="geometry" />
        </mxCell>
        <mxCell id="edge2" value="" style="html=1;rounded=1;;dashed=0;startArrow=none;endArrow=block;endSize=12;strokeColor=#788AA3;exitX=0.531;exitY=0.000;exitDx=0;exitDy=0;entryX=0.458;entryY=1.000;entryDx=0;entryDy=0;labelBackgroundColor=none;fontColor=default;" parent="1" source="node8" target="node13" edge="1">
          <mxGeometry width="50" height="50" relative="1" as="geometry">
            <Array as="points" />
          </mxGeometry>
        </mxCell>
        <mxCell id="label14" value="schulklasse_id:id" style="edgeLabel;resizable=0;html=1;align=left;verticalAlign=top;strokeColor=#788AA3;labelBackgroundColor=none;fontColor=#46495D;" parent="edge2" vertex="1" connectable="0">
          <mxGeometry x="198" y="773" as="geometry" />
        </mxCell>
        <mxCell id="edge12" value="" style="html=1;rounded=1;;dashed=0;startArrow=none;endArrow=block;endSize=12;strokeColor=#788AA3;exitX=0.000;exitY=0.529;exitDx=0;exitDy=0;entryX=1.000;entryY=0.466;entryDx=0;entryDy=0;labelBackgroundColor=none;fontColor=default;" parent="1" source="node1" target="node14" edge="1">
          <mxGeometry width="50" height="50" relative="1" as="geometry">
            <Array as="points" />
          </mxGeometry>
        </mxCell>
        <mxCell id="label74" value="abteilung_id:id" style="edgeLabel;resizable=0;html=1;align=left;verticalAlign=top;strokeColor=#788AA3;labelBackgroundColor=none;fontColor=#46495D;" parent="edge12" vertex="1" connectable="0">
          <mxGeometry x="219" y="270" as="geometry" />
        </mxCell>
        <mxCell id="edge6" value="" style="html=1;rounded=1;;dashed=0;startArrow=none;endArrow=block;endSize=12;strokeColor=#788AA3;exitX=0.000;exitY=0.574;exitDx=0;exitDy=0;entryX=1.000;entryY=0.441;entryDx=0;entryDy=0;labelBackgroundColor=none;fontColor=default;" parent="1" source="node15" target="node1" edge="1">
          <mxGeometry width="50" height="50" relative="1" as="geometry">
            <Array as="points" />
          </mxGeometry>
        </mxCell>
        <mxCell id="label38" value="jahrgang_id:id" style="edgeLabel;resizable=0;html=1;align=left;verticalAlign=top;strokeColor=#788AA3;labelBackgroundColor=none;fontColor=#46495D;" parent="edge6" vertex="1" connectable="0">
          <mxGeometry x="508" y="357" as="geometry" />
        </mxCell>
        <mxCell id="edge7" value="" style="html=1;rounded=1;;dashed=0;startArrow=none;endArrow=block;endSize=12;strokeColor=#788AA3;exitX=0.858;exitY=1.000;exitDx=0;exitDy=0;entryX=0.139;entryY=0.000;entryDx=0;entryDy=0;labelBackgroundColor=none;fontColor=default;" parent="1" source="node15" target="node11" edge="1">
          <mxGeometry width="50" height="50" relative="1" as="geometry">
            <Array as="points" />
          </mxGeometry>
        </mxCell>
        <mxCell id="label44" value="tags_id:id" style="edgeLabel;resizable=0;html=1;align=left;verticalAlign=top;strokeColor=#788AA3;labelBackgroundColor=none;fontColor=#46495D;" parent="edge7" vertex="1" connectable="0">
          <mxGeometry x="821" y="393" as="geometry" />
        </mxCell>
        <mxCell id="edge20" value="" style="html=1;rounded=1;;dashed=0;startArrow=none;endArrow=block;endSize=12;strokeColor=#788AA3;exitX=1.000;exitY=0.541;exitDx=0;exitDy=0;entryX=0.000;entryY=0.421;entryDx=0;entryDy=0;labelBackgroundColor=none;fontColor=default;" parent="1" source="node16" target="node17" edge="1">
          <mxGeometry width="50" height="50" relative="1" as="geometry">
            <Array as="points" />
          </mxGeometry>
        </mxCell>
        <mxCell id="label122" value="begin_id:id" style="edgeLabel;resizable=0;html=1;align=left;verticalAlign=top;strokeColor=#788AA3;labelBackgroundColor=none;fontColor=#46495D;" parent="edge20" vertex="1" connectable="0">
          <mxGeometry x="761" y="1215" as="geometry" />
        </mxCell>
        <mxCell id="edge8" value="" style="html=1;rounded=1;;dashed=0;startArrow=none;endArrow=block;endSize=12;strokeColor=#788AA3;exitX=0.000;exitY=0.785;exitDx=0;exitDy=0;entryX=0.957;entryY=0.000;entryDx=0;entryDy=0;labelBackgroundColor=none;fontColor=default;" parent="1" source="node16" target="node5" edge="1">
          <mxGeometry width="50" height="50" relative="1" as="geometry">
            <Array as="points" />
          </mxGeometry>
        </mxCell>
        <mxCell id="label50" value="end_id:id" style="edgeLabel;resizable=0;html=1;align=left;verticalAlign=top;strokeColor=#788AA3;labelBackgroundColor=none;fontColor=#46495D;" parent="edge8" vertex="1" connectable="0">
          <mxGeometry x="501" y="1323" as="geometry" />
        </mxCell>
        <mxCell id="edge11" value="" style="html=1;rounded=1;;dashed=0;startArrow=none;endArrow=block;endSize=12;strokeColor=#788AA3;exitX=1.000;exitY=0.277;exitDx=0;exitDy=0;entryX=0.000;entryY=0.755;entryDx=0;entryDy=0;labelBackgroundColor=none;fontColor=default;" parent="1" source="node16" target="node0" edge="1">
          <mxGeometry width="50" height="50" relative="1" as="geometry">
            <Array as="points" />
          </mxGeometry>
        </mxCell>
        <mxCell id="label68" value="room_id:id" style="edgeLabel;resizable=0;html=1;align=left;verticalAlign=top;strokeColor=#788AA3;labelBackgroundColor=none;fontColor=#46495D;" parent="edge11" vertex="1" connectable="0">
          <mxGeometry x="706" y="1176" as="geometry" />
        </mxCell>
        <mxCell id="edge5" value="" style="html=1;rounded=1;;dashed=0;startArrow=none;endArrow=block;endSize=12;strokeColor=#788AA3;exitX=0.329;exitY=0.000;exitDx=0;exitDy=0;entryX=0.613;entryY=1.000;entryDx=0;entryDy=0;labelBackgroundColor=none;fontColor=default;" parent="1" source="node16" target="node12" edge="1">
          <mxGeometry width="50" height="50" relative="1" as="geometry">
            <Array as="points" />
          </mxGeometry>
        </mxCell>
        <mxCell id="label32" value="subject_id:id" style="edgeLabel;resizable=0;html=1;align=left;verticalAlign=top;strokeColor=#788AA3;labelBackgroundColor=none;fontColor=#46495D;" parent="edge5" vertex="1" connectable="0">
          <mxGeometry x="601" y="1095" as="geometry" />
        </mxCell>
        <mxCell id="edge21" value="" style="html=1;rounded=1;;dashed=0;startArrow=none;endArrow=block;endSize=12;strokeColor=#788AA3;exitX=0.361;exitY=0.000;exitDx=0;exitDy=0;entryX=0.680;entryY=1.000;entryDx=0;entryDy=0;labelBackgroundColor=none;fontColor=default;" parent="1" source="node7" target="node8" edge="1">
          <mxGeometry width="50" height="50" relative="1" as="geometry">
            <Array as="points" />
          </mxGeometry>
        </mxCell>
        <mxCell id="label128" value="groups_id:id" style="edgeLabel;resizable=0;html=1;align=left;verticalAlign=top;strokeColor=#788AA3;labelBackgroundColor=none;fontColor=#46495D;" parent="edge21" vertex="1" connectable="0">
          <mxGeometry x="225" y="985" as="geometry" />
        </mxCell>
        <mxCell id="edge10" value="" style="html=1;rounded=1;;dashed=0;startArrow=none;endArrow=block;endSize=12;strokeColor=#788AA3;exitX=1.000;exitY=0.572;exitDx=0;exitDy=0;entryX=0.000;entryY=0.469;entryDx=0;entryDy=0;labelBackgroundColor=none;fontColor=default;" parent="1" source="node7" target="node16" edge="1">
          <mxGeometry width="50" height="50" relative="1" as="geometry">
            <Array as="points" />
          </mxGeometry>
        </mxCell>
        <mxCell id="label62" value="lesson_id:id" style="edgeLabel;resizable=0;html=1;align=left;verticalAlign=top;strokeColor=#788AA3;labelBackgroundColor=none;fontColor=#46495D;" parent="edge10" vertex="1" connectable="0">
          <mxGeometry x="415" y="1183" as="geometry" />
        </mxCell>
        <mxCell id="edge4" value="" style="html=1;rounded=1;;dashed=0;startArrow=none;endArrow=block;endSize=12;strokeColor=#788AA3;exitX=1.000;exitY=0.626;exitDx=0;exitDy=0;entryX=0.000;entryY=0.296;entryDx=0;entryDy=0;labelBackgroundColor=none;fontColor=default;" parent="1" source="node0" target="node3" edge="1">
          <mxGeometry width="50" height="50" relative="1" as="geometry">
            <Array as="points" />
          </mxGeometry>
        </mxCell>
        <mxCell id="label26" value="building_id:id" style="edgeLabel;resizable=0;html=1;align=left;verticalAlign=top;strokeColor=#788AA3;labelBackgroundColor=none;fontColor=#46495D;" parent="edge4" vertex="1" connectable="0">
          <mxGeometry x="1009" y="1039" as="geometry" />
        </mxCell>
        <mxCell id="edge13" value="" style="html=1;rounded=1;;dashed=0;startArrow=none;endArrow=block;endSize=12;strokeColor=#788AA3;exitX=0.455;exitY=1.000;exitDx=0;exitDy=0;entryX=0.572;entryY=0.000;entryDx=0;entryDy=0;labelBackgroundColor=none;fontColor=default;" parent="1" source="node10" target="node0" edge="1">
          <mxGeometry width="50" height="50" relative="1" as="geometry">
            <Array as="points" />
          </mxGeometry>
        </mxCell>
        <mxCell id="label80" value="room_id:id" style="edgeLabel;resizable=0;html=1;align=left;verticalAlign=top;strokeColor=#788AA3;labelBackgroundColor=none;fontColor=#46495D;" parent="edge13" vertex="1" connectable="0">
          <mxGeometry x="950" y="875" as="geometry" />
        </mxCell>
        <mxCell id="edge1" value="" style="html=1;rounded=1;;dashed=0;startArrow=none;endArrow=block;endSize=12;strokeColor=#788AA3;exitX=0.458;exitY=0.000;exitDx=0;exitDy=0;entryX=0.536;entryY=1.000;entryDx=0;entryDy=0;labelBackgroundColor=none;fontColor=default;" parent="1" source="node10" target="node11" edge="1">
          <mxGeometry width="50" height="50" relative="1" as="geometry">
            <Array as="points" />
          </mxGeometry>
        </mxCell>
        <mxCell id="label8" value="tags_id:id" style="edgeLabel;resizable=0;html=1;align=left;verticalAlign=top;strokeColor=#788AA3;labelBackgroundColor=none;fontColor=#46495D;" parent="edge1" vertex="1" connectable="0">
          <mxGeometry x="955" y="660" as="geometry" />
        </mxCell>
        <mxCell id="edge15" value="" style="html=1;rounded=1;;dashed=0;startArrow=none;endArrow=block;endSize=12;strokeColor=#788AA3;exitX=0.271;exitY=0.000;exitDx=0;exitDy=0;entryX=0.660;entryY=1.000;entryDx=0;entryDy=0;labelBackgroundColor=none;fontColor=default;" parent="1" source="node13" target="node14" edge="1">
          <mxGeometry width="50" height="50" relative="1" as="geometry">
            <Array as="points" />
          </mxGeometry>
        </mxCell>
        <mxCell id="label92" value="abteilung_id:id" style="edgeLabel;resizable=0;html=1;align=left;verticalAlign=top;strokeColor=#788AA3;labelBackgroundColor=none;fontColor=#46495D;" parent="edge15" vertex="1" connectable="0">
          <mxGeometry x="164" y="490" as="geometry" />
        </mxCell>
        <mxCell id="edge0" value="" style="html=1;rounded=1;;dashed=0;startArrow=none;endArrow=block;endSize=12;strokeColor=#788AA3;exitX=0.865;exitY=0.000;exitDx=0;exitDy=0;entryX=0.204;entryY=1.000;entryDx=0;entryDy=0;labelBackgroundColor=none;fontColor=default;" parent="1" source="node13" target="node1" edge="1">
          <mxGeometry width="50" height="50" relative="1" as="geometry">
            <Array as="points" />
          </mxGeometry>
        </mxCell>
        <mxCell id="label2" value="jahrgang_id:id" style="edgeLabel;resizable=0;html=1;align=left;verticalAlign=top;strokeColor=#788AA3;labelBackgroundColor=none;fontColor=#46495D;" parent="edge0" vertex="1" connectable="0">
          <mxGeometry x="298" y="500" as="geometry" />
        </mxCell>
        <mxCell id="edge16" value="" style="html=1;rounded=1;;dashed=0;startArrow=none;endArrow=block;endSize=12;strokeColor=#788AA3;exitX=1.000;exitY=0.806;exitDx=0;exitDy=0;entryX=0.000;entryY=0.081;entryDx=0;entryDy=0;labelBackgroundColor=none;fontColor=default;" parent="1" source="node9" target="node8" edge="1">
          <mxGeometry width="50" height="50" relative="1" as="geometry">
            <Array as="points" />
          </mxGeometry>
        </mxCell>
        <mxCell id="label98" value="group_id:id" style="edgeLabel;resizable=0;html=1;align=left;verticalAlign=top;strokeColor=#788AA3;labelBackgroundColor=none;fontColor=#46495D;" parent="edge16" vertex="1" connectable="0">
          <mxGeometry x="-15" y="779" as="geometry" />
        </mxCell>
        <mxCell id="edge17" value="" style="html=1;rounded=1;;dashed=0;startArrow=none;endArrow=block;endSize=12;strokeColor=#788AA3;exitX=1.000;exitY=0.294;exitDx=0;exitDy=0;entryX=0.000;entryY=0.707;entryDx=0;entryDy=0;labelBackgroundColor=none;fontColor=default;" parent="1" source="node9" target="node13" edge="1">
          <mxGeometry width="50" height="50" relative="1" as="geometry">
            <Array as="points" />
          </mxGeometry>
        </mxCell>
        <mxCell id="label104" value="schulklasse_id:id" style="edgeLabel;resizable=0;html=1;align=left;verticalAlign=top;strokeColor=#788AA3;labelBackgroundColor=none;fontColor=#46495D;" parent="edge17" vertex="1" connectable="0">
          <mxGeometry x="-15" y="705" as="geometry" />
        </mxCell>
        <mxCell id="edge18" value="" style="html=1;rounded=1;;dashed=0;startArrow=none;endArrow=block;endSize=12;strokeColor=#788AA3;exitX=0.371;exitY=1.000;exitDx=0;exitDy=0;entryX=0.669;entryY=0.000;entryDx=0;entryDy=0;labelBackgroundColor=none;fontColor=default;" parent="1" source="node2" target="node12" edge="1">
          <mxGeometry width="50" height="50" relative="1" as="geometry">
            <Array as="points" />
          </mxGeometry>
        </mxCell>
        <mxCell id="label110" value="subject_id:id" style="edgeLabel;resizable=0;html=1;align=left;verticalAlign=top;strokeColor=#788AA3;labelBackgroundColor=none;fontColor=#46495D;" parent="edge18" vertex="1" connectable="0">
          <mxGeometry x="615" y="714" as="geometry" />
        </mxCell>
        <mxCell id="edge14" value="" style="html=1;rounded=1;;dashed=0;startArrow=none;endArrow=block;endSize=12;strokeColor=#788AA3;exitX=1;exitY=0.25;exitDx=0;exitDy=0;entryX=0.000;entryY=0.618;entryDx=0;entryDy=0;labelBackgroundColor=none;fontColor=default;" parent="1" source="node2" target="node11" edge="1">
          <mxGeometry width="50" height="50" relative="1" as="geometry">
            <Array as="points" />
          </mxGeometry>
        </mxCell>
        <mxCell id="label86" value="tagsuseful_id:id" style="edgeLabel;resizable=0;html=1;align=left;verticalAlign=top;strokeColor=#788AA3;labelBackgroundColor=none;fontColor=#46495D;" parent="edge14" vertex="1" connectable="0">
          <mxGeometry x="753" y="509" as="geometry" />
        </mxCell>
        <mxCell id="edge19" value="" style="html=1;rounded=1;;dashed=0;startArrow=none;endArrow=block;endSize=12;strokeColor=#788AA3;entryX=0;entryY=1;entryDx=0;entryDy=0;labelBackgroundColor=none;fontColor=default;exitX=1.005;exitY=0.552;exitDx=0;exitDy=0;exitPerimeter=0;" parent="1" source="node2" target="node11" edge="1">
          <mxGeometry width="50" height="50" relative="1" as="geometry">
            <Array as="points" />
          </mxGeometry>
        </mxCell>
        <mxCell id="label116" value="tagsrequired_id:id" style="edgeLabel;resizable=0;html=1;align=left;verticalAlign=top;strokeColor=#788AA3;labelBackgroundColor=none;fontColor=#46495D;" parent="edge19" vertex="1" connectable="0">
          <mxGeometry x="786" y="615" as="geometry" />
        </mxCell>
        <mxCell id="edge3" value="" style="html=1;rounded=1;;dashed=0;startArrow=none;endArrow=block;endSize=12;strokeColor=#788AA3;exitX=0.250;exitY=1.000;exitDx=0;exitDy=0;entryX=0.736;entryY=0.000;entryDx=0;entryDy=0;labelBackgroundColor=none;fontColor=default;" parent="1" source="node6" target="node11" edge="1">
          <mxGeometry width="50" height="50" relative="1" as="geometry">
            <Array as="points" />
          </mxGeometry>
        </mxCell>
        <mxCell id="label20" value="tags_id:id" style="edgeLabel;resizable=0;html=1;align=left;verticalAlign=top;strokeColor=#788AA3;labelBackgroundColor=none;fontColor=#46495D;" parent="edge3" vertex="1" connectable="0">
          <mxGeometry x="1030" y="386" as="geometry" />
        </mxCell>
        <mxCell id="edge9" value="" style="html=1;rounded=1;;dashed=0;startArrow=none;endArrow=block;endSize=12;strokeColor=#788AA3;exitX=0.804;exitY=1.000;exitDx=0;exitDy=0;entryX=0.126;entryY=0.000;entryDx=0;entryDy=0;labelBackgroundColor=none;fontColor=default;" parent="1" source="node6" target="node4" edge="1">
          <mxGeometry width="50" height="50" relative="1" as="geometry">
            <Array as="points" />
          </mxGeometry>
        </mxCell>
        <mxCell id="label56" value="teacher_id:id" style="edgeLabel;resizable=0;html=1;align=left;verticalAlign=top;strokeColor=#788AA3;labelBackgroundColor=none;fontColor=#46495D;" parent="edge9" vertex="1" connectable="0">
          <mxGeometry x="1170" y="372" as="geometry" />
        </mxCell>
      </root>
    </mxGraphModel>
  </diagram>
</mxfile>
